Coordinates
version=1
nRows=7
nColumns=40
inDegrees=yes

Units are S.I. units (second, meters, Newtons, ...)
Angles are in degrees.

endheader
time	pelvis_tilt	pelvis_list	pelvis_rotation	pelvis_tx	pelvis_ty	pelvis_tz	hip_flexion_r	hip_adduction_r	hip_rotation_r	knee_angle_r	knee_angle_r_beta	ankle_angle_r	subtalar_angle_r	mtp_angle_r	hip_flexion_l	hip_adduction_l	hip_rotation_l	knee_angle_l	knee_angle_l_beta	ankle_angle_l	subtalar_angle_l	mtp_angle_l	lumbar_extension	lumbar_bending	lumbar_rotation	arm_flex_r	arm_add_r	arm_rot_r	elbow_flex_r	pro_sup_r	wrist_flex_r	wrist_dev_r	arm_flex_l	arm_add_l	arm_rot_l	elbow_flex_l	pro_sup_l	wrist_flex_l	wrist_dev_l
      2.73000000	      1.16981562	     -6.71050797	      3.79157427	      0.43262561	      0.89944436	     -1.44871937	     12.21047898	      7.24337136	    -21.33973017	    -19.03731495	     -0.33226383	      2.68170328	      1.97891751	     -4.10708927	      0.88292818	     11.60420446	     10.74620026	    -50.84350017	     -0.88738648	     -9.75941226	      3.75925722	     -6.12586940	     -6.49584779	     10.45097728	     -3.35120030	      5.79835995	     -9.72174826	     19.60687914	     13.30726699	     89.95437384	      0.00000000	      0.00000000	      8.03691319	      7.49408679	    -20.92002428	     17.70215304	     89.95437384	      0.00000000	      0.00000000
      2.74000000	      1.68543066	     -6.77354349	      3.96127380	      0.44008204	      0.90021677	     -1.44831906	     11.12341807	      7.47891368	    -21.17911689	    -19.07592743	     -0.33293774	      3.46061849	      1.96129722	     -4.21016507	      1.62060519	     11.98027650	     10.61549410	    -52.38966019	     -0.91437206	     -8.59780996	      4.68768803	     -6.37815284	     -7.10042373	     10.50438446	     -3.12409880	      6.13913356	     -9.91452117	     19.63737927	     13.61692890	     89.95437384	      0.00000000	      0.00000000	      7.88988722	      7.47982577	    -21.01436374	     17.42581899	     89.95437384	      0.00000000	      0.00000000
      2.75000000	      2.11032754	     -6.78479197	      4.09817846	      0.44750532	      0.90089690	     -1.44771460	     10.09706011	      7.67125220	    -21.07520824	    -19.01092633	     -0.33180326	      3.99303284	      1.90516895	     -4.26393022	      2.47533513	     12.21794095	     10.36698015	    -53.75859693	     -0.93826452	     -7.61739856	      5.64592153	     -6.55379463	     -7.59312718	     10.46261037	     -2.88126783	      6.45328007	    -10.07020450	     19.62691384	     13.95268144	     89.95437384	      0.00000000	      0.00000000	      7.66655415	      7.54633986	    -21.09053228	     17.31520967	     89.95437384	      0.00000000	      0.00000000
      2.76000000	      2.50355746	     -6.73644097	      4.28674683	      0.45475564	      0.90158482	     -1.44748089	      9.08795308	      7.78944326	    -20.86827571	    -18.90343881	     -0.32992725	      4.52856773	      1.77789073	     -4.30341259	      3.39424360	     12.24792385	      9.91110944	    -54.93812291	     -0.95885113	     -6.75148985	      6.55319577	     -6.74253819	     -8.04977728	     10.39088499	     -2.63545516	      6.79553664	    -10.23782141	     19.70236148	     14.13417281	     89.95437384	      0.00000000	      0.00000000	      7.45234327	      7.60790113	    -21.24437849	     17.32175456	     89.95437384	      0.00000000	      0.00000000
      2.77000000	      2.74947844	     -6.42728137	      4.23037572	      0.46163967	      0.90224143	     -1.44686542	      8.38370333	      7.56842825	    -20.69663294	    -19.07742826	     -0.33296394	      4.74717126	      1.64789458	     -4.26416560	      4.39775434	     12.02222132	      9.79688424	    -55.84648233	     -0.97470499	     -6.23322294	      6.61550748	     -6.79235391	     -8.44851625	      9.96841267	     -2.23790174	      7.16901677	    -10.36755431	     19.65351567	     14.39991500	     89.95437384	      0.00000000	      0.00000000	      7.22452519	      7.74800627	    -21.21063033	     17.43738524	     89.95437384	      0.00000000	      0.00000000
      2.78000000	      3.01891766	     -6.28084837	      4.42819857	      0.46882415	      0.90286990	     -1.44675447	      7.55098885	      7.58143244	    -20.38833152	    -19.03912138	     -0.33229535	      5.55299387	      1.38222488	     -4.30507315	      5.41328057	     11.72773751	      9.07039126	    -56.58196584	     -0.98754160	     -4.62139088	      6.92584845	     -7.15190588	     -8.72761278	      9.78800510	     -2.06009360	      7.55933998	    -10.48858938	     19.63730753	     14.49630339	     89.95437384	      0.00000000	      0.00000000	      6.94688892	      7.85631771	    -21.36617936	     17.52027724	     89.95437384	      0.00000000	      0.00000000
      2.79000000	      3.20607584	     -6.01564313	      4.46694530	      0.47582167	      0.90345606	     -1.44637286	      6.84757716	      7.43310102	    -20.13563655	    -19.09759178	     -0.33331586	      5.98917901	      1.15486006	     -4.29275346	      6.46877656	     11.28204169	      8.52358707	    -57.10650993	     -0.99669662	     -3.62419642	      6.87652836	     -7.44677653	     -8.96680001	      9.43174592	     -1.76882004	      7.94909750	    -10.57717908	     19.58944195	     14.60844614	     89.95437384	      0.00000000	      0.00000000	      6.65697425	      8.01293440	    -21.38860288	     17.71158123	     89.95437384	      0.00000000	      0.00000000
